<svg width="60" height="60" viewBox="0 0 60 60" fill="none" xmlns="http://www.w3.org/2000/svg">
<g filter="url(#filter0_i_58_44)">
<rect width="60" height="60" rx="10" fill="#090314" fill-opacity="0.3"/>
<path d="M42.005 25.4688C41.3797 24.6987 40.655 24.0149 39.8499 23.4352H39.8439C38.3934 22.3879 36.7101 21.7087 34.9389 21.4562C34.4168 21.3773 33.8765 21.3409 33.3302 21.3409C32.7899 21.3409 32.2496 21.3834 31.7276 21.4623C29.9307 21.7233 28.2552 22.4153 26.8226 23.4413C26.0152 24.0119 25.2867 24.6918 24.6554 25.4628C22.6703 27.891 21.6808 31.1873 22.3911 34.7567C23.4352 39.8499 27.9335 43.6744 33.3302 43.6744C39.4979 43.6744 44.5 38.6722 44.5 32.5046C44.5053 29.9417 43.6238 27.4558 42.005 25.4688ZM33.3302 41.1551C28.5527 41.1551 24.6797 37.2821 24.6797 32.5046C24.6797 27.7271 28.5527 23.8541 33.3302 23.8541C38.1138 23.8541 41.9868 27.7271 41.9868 32.5046C41.9868 37.2821 38.1138 41.1551 33.3302 41.1551ZM24.049 24.8557C24.6803 24.0847 25.4088 23.4048 26.2161 22.8342L24.9292 21.5473C24.6378 21.2559 24.2554 21.1102 23.879 21.1102C23.5026 21.1102 23.1202 21.2559 22.8288 21.5473C22.2521 22.124 22.2521 23.0588 22.8288 23.6416L24.049 24.8557ZM42.612 24.8618L43.8383 23.6416C44.1297 23.3502 44.2693 22.9678 44.2693 22.5914C44.2693 22.215 44.1297 21.8386 43.8383 21.5473C43.2555 20.9645 42.3207 20.9645 41.7379 21.5473L40.457 22.8281C41.2644 23.4109 41.9868 24.0908 42.612 24.8618ZM31.0598 18.7803H31.7276V20.2482C32.2496 20.1692 32.7899 20.1267 33.3302 20.1267C33.8765 20.1267 34.4168 20.1632 34.9389 20.2421V18.7803H35.6066C35.7676 18.7803 35.9221 18.7163 36.0359 18.6025C36.1497 18.4887 36.2137 18.3343 36.2137 18.1733V16.6071C36.2137 16.4461 36.1497 16.2916 36.0359 16.1778C35.9221 16.064 35.7676 16 35.6066 16H31.0598C30.8988 16 30.7444 16.064 30.6306 16.1778C30.5167 16.2916 30.4528 16.4461 30.4528 16.6071V18.1733C30.4528 18.3343 30.5167 18.4887 30.6306 18.6025C30.7444 18.7163 30.8988 18.7803 31.0598 18.7803ZM17.0958 28.3827H20.6859C20.8469 28.3827 21.0013 28.3187 21.1151 28.2049C21.229 28.091 21.2929 27.9366 21.2929 27.7756C21.2929 27.6146 21.229 27.4602 21.1151 27.3464C21.0013 27.2325 20.8469 27.1686 20.6859 27.1686H17.0958C16.9348 27.1686 16.7804 27.2325 16.6665 27.3464C16.5527 27.4602 16.4887 27.6146 16.4887 27.7756C16.4887 27.9366 16.5527 28.091 16.6665 28.2049C16.7804 28.3187 16.9348 28.3827 17.0958 28.3827ZM20.8492 36.4261H17.0952C16.9342 36.4261 16.7797 36.4901 16.6659 36.6039C16.5521 36.7178 16.4881 36.8722 16.4881 37.0332C16.4881 37.1942 16.5521 37.3486 16.6659 37.4624C16.7797 37.5763 16.9342 37.6402 17.0952 37.6402H20.8492C21.0102 37.6402 21.1646 37.5763 21.2784 37.4624C21.3923 37.3486 21.4562 37.1942 21.4562 37.0332C21.4562 36.8722 21.3923 36.7178 21.2784 36.6039C21.1646 36.4901 21.0102 36.4261 20.8492 36.4261ZM20.7035 32.4044C20.7035 32.2434 20.6395 32.089 20.5257 31.9752C20.4118 31.8613 20.2574 31.7974 20.0964 31.7974H15.1071C14.9461 31.7974 14.7916 31.8613 14.6778 31.9752C14.564 32.089 14.5 32.2434 14.5 32.4044C14.5 32.5654 14.564 32.7198 14.6778 32.8337C14.7916 32.9475 14.9461 33.0115 15.1071 33.0115H20.0964C20.2574 33.0115 20.4118 32.9475 20.5257 32.8337C20.6395 32.7198 20.7035 32.5654 20.7035 32.4044Z" fill="white"/>
<path d="M30.4176 35.6509C30.6151 35.8485 30.8541 35.9998 31.1172 36.0939C31.3803 36.188 31.661 36.2226 31.9391 36.1951C32.2171 36.1676 32.4857 36.0788 32.7253 35.9351C32.9649 35.7913 33.1696 35.5962 33.3247 35.3638L38.5952 27.4685L30.7029 32.7437C30.4708 32.8992 30.276 33.1041 30.1325 33.3437C29.9891 33.5834 29.9005 33.8519 29.8732 34.1299C29.8459 34.4079 29.8806 34.6885 29.9747 34.9515C30.0688 35.2145 30.2201 35.4534 30.4176 35.6509Z" fill="white"/>
</g>
<defs>
<filter id="filter0_i_58_44" x="0" y="0" width="60" height="60" filterUnits="userSpaceOnUse" color-interpolation-filters="sRGB">
<feFlood flood-opacity="0" result="BackgroundImageFix"/>
<feBlend mode="normal" in="SourceGraphic" in2="BackgroundImageFix" result="shape"/>
<feColorMatrix in="SourceAlpha" type="matrix" values="0 0 0 0 0 0 0 0 0 0 0 0 0 0 0 0 0 0 127 0" result="hardAlpha"/>
<feOffset/>
<feGaussianBlur stdDeviation="9.25"/>
<feComposite in2="hardAlpha" operator="arithmetic" k2="-1" k3="1"/>
<feColorMatrix type="matrix" values="0 0 0 0 0.533333 0 0 0 0 0.376471 0 0 0 0 0.921569 0 0 0 0.3 0"/>
<feBlend mode="normal" in2="shape" result="effect1_innerShadow_58_44"/>
</filter>
</defs>
</svg>
